<?xml version="1.0" standalone="no"?>
<!DOCTYPE svg PUBLIC "-//W3C//DTD SVG 20010904//EN"
 "http://www.w3.org/TR/2001/REC-SVG-20010904/DTD/svg10.dtd">
<svg version="1.0" xmlns="http://www.w3.org/2000/svg"
 width="501.000000pt" height="499.000000pt" viewBox="0 0 501.000000 499.000000"
 preserveAspectRatio="xMidYMid meet">

<g transform="translate(0.000000,499.000000) scale(0.100000,-0.100000)"
fill="black" stroke="none">
<path d="M1500 3830 l0 -120 -120 0 -120 0 0 -120 0 -120 -120 0 -120 0 0
-480 0 -480 120 0 120 0 0 -120 0 -120 120 0 120 0 0 -120 0 -120 120 0 120 0
0 -120 0 -120 120 0 120 0 0 -120 0 -120 120 0 120 0 0 -120 0 -120 120 0 120
0 0 -120 0 -120 120 0 120 0 0 120 0 120 120 0 120 0 0 120 0 120 120 0 120 0
0 120 0 120 120 0 120 0 0 120 0 120 120 0 120 0 0 120 0 120 120 0 120 0 0
120 0 120 120 0 120 0 0 480 0 480 -120 0 -120 0 0 120 0 120 -120 0 -120 0 0
120 0 120 -360 0 -360 0 0 -120 0 -120 -120 0 -120 0 0 -120 0 -120 -120 0
-120 0 0 120 0 120 -120 0 -120 0 0 120 0 120 -360 0 -360 0 0 -120z m480
-480 l0 -120 -120 0 -120 0 0 -120 0 -120 -120 0 -120 0 0 240 0 240 240 0
240 0 0 -120z m-240 -720 l0 -120 -120 0 -120 0 0 120 0 120 120 0 120 0 0
-120z"/>
</g>
</svg>